<svg viewBox="0 0 25 24" fill="none" xmlns="http://www.w3.org/2000/svg">
    <path d="M23.5769 0.907227L13.9697 8.0139L15.761 3.82447L23.5769 0.907227Z" fill="#E17726" />
    <path fill-rule="evenodd" clip-rule="evenodd"
        d="M23.6568 0.863744C23.6785 0.903785 23.6675 0.953708 23.6308 0.980799L14.0237 8.08747C13.9905 8.11201 13.945 8.11128 13.9126 8.08569C13.8803 8.0601 13.8691 8.016 13.8853 7.97806L15.6766 3.78864C15.6864 3.76565 15.7052 3.74769 15.7287 3.73895L23.5445 0.821701C23.5872 0.805772 23.6351 0.823703 23.6568 0.863744ZM15.8293 3.8965L14.1858 7.74019L23.0001 1.22001L15.8293 3.8965Z"
        fill="#E17726" />
    <path
        d="M1.42302 0.907227L10.9424 8.07239L9.2389 3.83178L1.42302 0.907227ZM20.1182 17.3798L17.5593 21.2841L23.0355 22.7902L24.6001 17.4675L20.1182 17.3798ZM0.406738 17.4675L1.96406 22.7902L7.42567 21.2841L4.88131 17.3798L0.406738 17.4675Z"
        fill="#E27625" />
    <path fill-rule="evenodd" clip-rule="evenodd"
        d="M1.34297 0.863377C1.36482 0.82355 1.41259 0.805809 1.45513 0.821727L9.27101 3.74628C9.29506 3.75528 9.31421 3.77398 9.32378 3.79781L11.0273 8.03842C11.0426 8.07648 11.0307 8.12008 10.9981 8.14503C10.9656 8.16998 10.9204 8.17018 10.8876 8.1455L1.36814 0.980343C1.33185 0.953027 1.32113 0.903203 1.34297 0.863377ZM1.98312 1.21445L10.7355 7.80225L9.1692 3.90335L1.98312 1.21445ZM4.8796 17.2885C4.91113 17.2879 4.94074 17.3036 4.95796 17.33L7.50232 21.2343C7.51825 21.2587 7.52155 21.2893 7.51122 21.3165C7.50089 21.3438 7.47817 21.3645 7.45005 21.3723L1.98845 22.8784C1.94032 22.8917 1.89045 22.8639 1.87643 22.816L0.319108 17.4933C0.311114 17.466 0.316307 17.4365 0.333152 17.4135C0.349997 17.3906 0.376572 17.3768 0.405031 17.3762L4.8796 17.2885ZM20.0419 17.3298C20.0591 17.3035 20.0887 17.2879 20.1201 17.2885L24.602 17.3762C24.6305 17.3768 24.6571 17.3906 24.6739 17.4136C24.6908 17.4366 24.6959 17.4661 24.6879 17.4934L23.1233 22.8161C23.1092 22.8639 23.0594 22.8917 23.0113 22.8784L17.5351 21.3723C17.5069 21.3645 17.4842 21.3438 17.4738 21.3165C17.4635 21.2891 17.4669 21.2585 17.4829 21.2341L20.0419 17.3298ZM0.528096 17.5567L2.0266 22.6783L7.28092 21.2293L4.8325 17.4723L0.528096 17.5567ZM20.1671 17.4722L17.7046 21.2293L22.9732 22.6784L24.4788 17.5567L20.1671 17.4722Z"
        fill="#E27625" />
    <path
        d="M7.13356 10.7851L5.61279 13.0809L11.0232 13.3295L10.8477 7.50231L7.13356 10.7924V10.7851ZM17.8667 10.7924L14.094 7.4292L13.9697 13.3295L19.3801 13.0809L17.8667 10.7924ZM7.42602 21.2843L10.7088 19.705L7.88663 17.5116L7.42602 21.2843ZM14.2987 19.6977L17.5596 21.2843L17.1209 17.5043L14.2987 19.6977Z"
        fill="#E27625" />
    <path fill-rule="evenodd" clip-rule="evenodd"
        d="M14.0571 7.3455C14.0898 7.33125 14.1278 7.33733 14.1544 7.36106L17.9271 10.7243C17.933 10.7295 17.9382 10.7355 17.9425 10.7421L19.456 13.0306C19.4741 13.058 19.4761 13.0931 19.4612 13.1224C19.4463 13.1517 19.4168 13.1708 19.3839 13.1723L13.9735 13.4209C13.9482 13.422 13.9236 13.4127 13.9055 13.395C13.8874 13.3773 13.8774 13.3529 13.8779 13.3277L14.0022 7.42736C14.003 7.3917 14.0244 7.35974 14.0571 7.3455ZM14.1808 7.62945L14.0627 13.2338L19.2147 12.9971L17.7966 10.8528L14.1808 7.62945ZM10.8836 7.4185C10.9161 7.43257 10.9376 7.4642 10.9387 7.49965L11.1142 13.3268C11.1149 13.3523 11.1051 13.3769 11.0869 13.3947C11.0688 13.4126 11.044 13.422 11.0186 13.4209L5.60819 13.1723C5.57532 13.1708 5.5458 13.1517 5.5309 13.1224C5.516 13.093 5.51802 13.0579 5.5362 13.0305L7.05697 10.7347C7.06756 10.7187 7.08255 10.707 7.0995 10.7002L10.7867 7.43399C10.8133 7.41047 10.851 7.40444 10.8836 7.4185ZM7.19115 10.8632L5.77759 12.9971L10.9285 13.2338L10.7619 7.70021L7.19376 10.8609C7.1929 10.8617 7.19203 10.8624 7.19115 10.8632ZM17.1559 17.4201C17.1863 17.4329 17.2075 17.4611 17.2113 17.4938L17.65 21.2738C17.6538 21.307 17.6393 21.3396 17.6121 21.3589C17.5848 21.3782 17.5492 21.3812 17.5192 21.3665L14.2583 19.78C14.2299 19.7662 14.2107 19.7387 14.2074 19.7073C14.2041 19.6759 14.2173 19.645 14.2422 19.6256L17.0644 17.4322C17.0905 17.412 17.1254 17.4073 17.1559 17.4201ZM7.85112 17.4273C7.8815 17.4147 7.91633 17.4193 7.94231 17.4395L10.7645 19.6329C10.7895 19.6524 10.8027 19.6833 10.7993 19.7148C10.796 19.7463 10.7766 19.7737 10.748 19.7875L7.46523 21.3667C7.43513 21.3812 7.39952 21.3781 7.37237 21.3586C7.34521 21.3392 7.33085 21.3065 7.33489 21.2733L7.79551 17.5006C7.7995 17.4679 7.82074 17.44 7.85112 17.4273ZM14.4703 19.6799L17.4492 21.1292L17.0484 17.6761L14.4703 19.6799ZM7.95741 17.6828L7.53658 21.1296L10.5358 19.6867L7.95741 17.6828Z"
        fill="#E27625" />
    <path
        d="M17.5594 21.2843L14.2985 19.7051L14.5617 21.8254L14.5324 22.7247L17.5594 21.2843ZM7.42578 21.2843L10.4673 22.7247L10.4454 21.8254L10.7086 19.7051L7.42578 21.2843Z"
        fill="#D5BFB2" />
    <path fill-rule="evenodd" clip-rule="evenodd"
        d="M10.762 19.6309C10.7892 19.6504 10.8035 19.6832 10.7994 19.7164L10.537 21.83L10.5588 22.7225C10.5595 22.7543 10.5438 22.7841 10.5172 22.8014C10.4906 22.8187 10.457 22.8209 10.4283 22.8074L7.38675 21.367C7.35492 21.3519 7.33458 21.3199 7.33447 21.2847C7.33437 21.2495 7.35451 21.2173 7.38625 21.2021L10.6691 19.6228C10.6992 19.6083 10.7348 19.6114 10.762 19.6309ZM14.2453 19.6309C14.2726 19.6114 14.3083 19.6083 14.3384 19.6229L17.5993 21.2022C17.6309 21.2175 17.651 21.2496 17.6508 21.2847C17.6507 21.3199 17.6305 21.3518 17.5987 21.3669L14.5718 22.8073C14.543 22.821 14.5092 22.8187 14.4825 22.8012C14.4558 22.7838 14.4402 22.7537 14.4412 22.7218L14.4702 21.8296L14.2079 19.7164C14.2037 19.6832 14.2181 19.6504 14.2453 19.6309ZM7.63803 21.2838L10.3724 22.5787L10.3541 21.8277C10.354 21.8232 10.3542 21.8187 10.3548 21.8142L10.5973 19.8601L7.63803 21.2838ZM14.41 19.8607L14.6525 21.8142C14.6531 21.8189 14.6533 21.8237 14.6531 21.8284L14.6288 22.5778L17.3483 21.2837L14.41 19.8607Z"
        fill="#D5BFB2" />
    <path
        d="M10.5187 16.1001L7.81348 15.3105L9.72906 14.4331L10.526 16.1001H10.5187ZM14.4742 16.1001L15.2784 14.4258L17.2013 15.3031L14.4742 16.1074V16.1001Z"
        fill="#233447" />
    <path fill-rule="evenodd" clip-rule="evenodd"
        d="M15.1956 14.3863C15.2172 14.3414 15.2707 14.3221 15.3159 14.3427L17.2388 15.2201C17.2735 15.2359 17.2948 15.2717 17.2921 15.3097C17.2894 15.3477 17.2633 15.3801 17.2267 15.3909L14.4996 16.1952C14.472 16.2033 14.4421 16.198 14.419 16.1807C14.3959 16.1634 14.3824 16.1363 14.3824 16.1075V16.1002C14.3824 16.0865 14.3854 16.073 14.3914 16.0606L15.1956 14.3863ZM9.6906 14.3501C9.73596 14.3293 9.78959 14.3488 9.81111 14.3938L10.6081 16.0608C10.6216 16.0891 10.6197 16.1224 10.6029 16.1489C10.5862 16.1755 10.557 16.1916 10.5256 16.1916H10.5183C10.5096 16.1916 10.501 16.1904 10.4927 16.1879L7.78747 15.3983C7.75083 15.3876 7.7247 15.3553 7.72192 15.3172C7.71915 15.2791 7.74032 15.2434 7.77502 15.2275L9.6906 14.3501ZM15.3216 14.5462L14.6411 15.9629L16.9403 15.2848L15.3216 14.5462ZM8.07408 15.2915L10.3562 15.9577L9.68498 14.5537L8.07408 15.2915Z"
        fill="#233447" />
    <path
        d="M7.42571 21.2844L7.90095 17.3802L4.88135 17.4679L7.42571 21.2844ZM17.0987 17.3802L17.5593 21.2844L20.1183 17.4679L17.0987 17.3802ZM19.3871 13.0811L13.9767 13.3296L14.4739 16.108L15.2781 14.4264L17.201 15.3037L19.3871 13.0811ZM7.81321 15.311L9.7288 14.4337L10.5257 16.1007L11.0302 13.3223L5.6198 13.0811L7.81321 15.311Z"
        fill="#CC6228" />
    <path fill-rule="evenodd" clip-rule="evenodd"
        d="M19.4707 13.0434C19.486 13.0777 19.4787 13.1179 19.4524 13.1447L17.2663 15.3674C17.2393 15.3948 17.1981 15.4024 17.1632 15.3865L15.3219 14.5464L14.5564 16.147C14.5393 16.1828 14.501 16.2035 14.4617 16.1981C14.4224 16.1928 14.391 16.1627 14.384 16.1237L13.8868 13.3453C13.8822 13.3194 13.889 13.2928 13.9054 13.2722C13.9218 13.2516 13.9463 13.2392 13.9726 13.2379L19.383 12.9894C19.4206 12.9876 19.4554 13.0091 19.4707 13.0434ZM5.5364 13.0435C5.55169 13.0091 5.58642 12.9877 5.62395 12.9893L11.0344 13.2306C11.0607 13.2318 11.0853 13.2443 11.1018 13.2649C11.1182 13.2856 11.1249 13.3123 11.1202 13.3383L10.6157 16.1166C10.6087 16.1556 10.5772 16.1856 10.538 16.1908C10.4987 16.1961 10.4605 16.1754 10.4434 16.1397L9.6852 14.5538L7.85136 15.3937C7.81638 15.4097 7.77512 15.4021 7.74814 15.3747L5.55473 13.1447C5.52838 13.118 5.52111 13.0778 5.5364 13.0435ZM5.84807 13.1823L7.83351 15.2008L9.69082 14.3502C9.73618 14.3294 9.78982 14.3488 9.81134 14.3938L10.4864 15.8059L10.9217 13.4086L5.84807 13.1823ZM14.0851 13.4157L14.514 15.8121L15.1958 14.3865C15.2173 14.3416 15.2708 14.3221 15.3162 14.3428L17.1808 15.1936L19.1587 13.1826L14.0851 13.4157ZM7.96857 17.3182C7.98651 17.3378 7.99498 17.3644 7.99176 17.3908L7.51652 21.2951C7.5119 21.333 7.48414 21.3641 7.44694 21.3729C7.40974 21.3818 7.37096 21.3665 7.34975 21.3347L4.80539 17.5182C4.78696 17.4905 4.78498 17.4551 4.80024 17.4255C4.81549 17.396 4.84556 17.3771 4.87878 17.3761L7.89838 17.2884C7.925 17.2876 7.95062 17.2985 7.96857 17.3182ZM17.0313 17.318C17.0493 17.2984 17.0749 17.2876 17.1014 17.2884L20.121 17.3761C20.1543 17.3771 20.1844 17.3961 20.1996 17.4256C20.2149 17.4552 20.2128 17.4907 20.1943 17.5184L17.6353 21.3349C17.614 21.3667 17.5751 21.3818 17.538 21.3729C17.5008 21.3639 17.4731 21.3327 17.4686 21.2947L17.008 17.3905C17.0049 17.3641 17.0134 17.3376 17.0313 17.318ZM5.04898 17.554L7.3649 21.0279L7.79747 17.4742L5.04898 17.554ZM17.2019 17.4742L17.6212 21.0278L19.9503 17.554L17.2019 17.4742Z"
        fill="#CC6228" />
    <path
        d="M5.62012 13.0811L7.88665 17.5044L7.81353 15.311L5.62012 13.0811ZM17.2014 15.311L17.1136 17.5044L19.3802 13.0811L17.2014 15.311ZM11.0305 13.3296L10.5187 16.108L11.1621 19.3835L11.3084 15.0624L11.0305 13.3296ZM13.9697 13.3296L13.7065 15.0551L13.8381 19.3835L14.4742 16.1007L13.9697 13.3223V13.3296Z"
        fill="#E27525" />
    <path fill-rule="evenodd" clip-rule="evenodd"
        d="M19.4336 13.0065C19.4703 13.0329 19.4822 13.0821 19.4616 13.1223L17.1951 17.5457C17.1755 17.5839 17.132 17.6033 17.0905 17.5924C17.049 17.5815 17.0207 17.5433 17.0224 17.5004L17.1101 15.307C17.111 15.2844 17.1203 15.2629 17.1361 15.2468L19.3149 13.0168C19.3465 12.9845 19.3969 12.9801 19.4336 13.0065ZM5.56671 13.0066C5.60331 12.9801 5.65371 12.9844 5.68537 13.0166L7.87878 15.2465C7.89486 15.2629 7.9042 15.2847 7.90497 15.3076L7.97808 17.501C7.97951 17.5438 7.95107 17.5818 7.90965 17.5925C7.86823 17.6032 7.82491 17.5838 7.8054 17.5457L5.53887 13.1223C5.51829 13.0822 5.53012 13.033 5.56671 13.0066ZM5.97397 13.5706L7.78179 17.0988L7.72347 15.3493L5.97397 13.5706ZM17.2914 15.3494L17.2216 17.093L19.0234 13.5766L17.2914 15.3494ZM13.9616 13.2309C14.0087 13.2267 14.0513 13.2591 14.0597 13.3056L14.5642 16.0839C14.5662 16.0951 14.5662 16.1065 14.564 16.1176L13.9279 19.4005C13.9191 19.4462 13.8773 19.4779 13.8309 19.4742C13.7845 19.4704 13.7483 19.4324 13.7469 19.3858L13.6153 15.0575C13.6151 15.052 13.6154 15.0464 13.6163 15.0409L13.8784 13.3223V13.3219C13.8784 13.2746 13.9145 13.2351 13.9616 13.2309ZM13.9783 13.88L13.7982 15.0603L13.9046 18.5599L14.3813 16.0997L13.9783 13.88ZM11.0317 13.2379C11.0762 13.2384 11.1138 13.2708 11.1209 13.3148L11.3987 15.0476C11.3996 15.0534 11.4 15.0593 11.3998 15.0651L11.2536 19.3862C11.252 19.4326 11.2159 19.4705 11.1696 19.4742C11.1232 19.4779 11.0815 19.4463 11.0726 19.4007L10.4292 16.1252C10.4269 16.1139 10.4269 16.1023 10.429 16.091L10.9408 13.3127C10.9488 13.2689 10.9872 13.2373 11.0317 13.2379ZM10.6119 16.107L11.0979 18.5815L11.2168 15.0678L11.0244 13.8676L10.6119 16.107Z"
        fill="#E27525" />
    <path
        d="M14.4741 16.1002L13.838 19.383L14.2987 19.7047L17.1135 17.5113L17.2013 15.3105L14.4741 16.1002ZM7.81346 15.3105L7.88658 17.504L10.7088 19.6974L11.1621 19.383L10.526 16.1002L7.80615 15.3105H7.81346Z"
        fill="#F5841F" />
    <path fill-rule="evenodd" clip-rule="evenodd"
        d="M17.2577 15.2387C17.2809 15.2568 17.2939 15.2849 17.2927 15.3143L17.205 17.515C17.2039 17.5419 17.191 17.5669 17.1698 17.5834L14.3549 19.7769C14.3233 19.8015 14.2793 19.8027 14.2464 19.7797L13.7858 19.458C13.7562 19.4373 13.7415 19.4011 13.7484 19.3657L14.3845 16.0829C14.391 16.0492 14.4159 16.022 14.4488 16.0125L17.176 15.2228C17.2042 15.2147 17.2346 15.2206 17.2577 15.2387ZM7.71576 15.2978C7.72217 15.2527 7.76074 15.2192 7.80624 15.2192H7.81355C7.82925 15.2192 7.84404 15.2232 7.85697 15.2302L10.5516 16.0125C10.5845 16.0221 10.6093 16.0492 10.6158 16.0829L11.2519 19.3657C11.2588 19.4013 11.244 19.4375 11.2143 19.4582L10.7609 19.7726C10.7281 19.7953 10.6843 19.7941 10.6528 19.7696L7.83059 17.5762C7.80915 17.5595 7.79623 17.5342 7.79533 17.5071L7.7234 15.3492C7.71612 15.3336 7.71319 15.3159 7.71576 15.2978ZM7.90917 15.4357L7.97658 17.4582L10.7119 19.5841L11.0611 19.3419L10.447 16.1725L7.90917 15.4357ZM14.5533 16.1725L13.9392 19.3422L14.2958 19.5912L17.024 17.4653L17.105 15.4337L14.5533 16.1725Z"
        fill="#F5841F" />
    <path
        d="M14.5398 22.7245L14.5617 21.8252L14.3131 21.6205H10.6867L10.4454 21.8252L10.4673 22.7245L7.42578 21.2842L8.49324 22.1615L10.6501 23.6458H14.3424L16.5065 22.1542L17.5594 21.2842L14.5324 22.7245H14.5398Z"
        fill="#C0AC9D" />
    <path fill-rule="evenodd" clip-rule="evenodd"
        d="M7.34869 21.2353C7.3734 21.1964 7.42328 21.1819 7.46498 21.2017L10.3724 22.5785L10.3541 21.8275C10.3534 21.7999 10.3653 21.7735 10.3863 21.7556L10.6276 21.5509C10.6441 21.5369 10.6651 21.5292 10.6867 21.5292H14.3132C14.3344 21.5292 14.3549 21.5366 14.3713 21.55L14.6199 21.7548C14.6416 21.7726 14.6538 21.7995 14.6531 21.8275L14.6349 22.5747L17.5202 21.2017C17.5618 21.1819 17.6117 21.1963 17.6365 21.2352C17.6613 21.2741 17.6532 21.3253 17.6177 21.3547L16.5587 22.2299L14.3943 23.7211C14.3791 23.7316 14.361 23.7372 14.3424 23.7372H10.6502C10.6317 23.7372 10.6136 23.7316 10.5984 23.7211L8.43509 22.2325L7.36784 21.3549C7.33219 21.3256 7.32398 21.2743 7.34869 21.2353ZM14.4494 22.6868C14.4413 22.7044 14.4389 22.7247 14.4434 22.7447C14.4528 22.7864 14.4898 22.816 14.5325 22.816H14.5399C14.5625 22.816 14.5832 22.8078 14.5992 22.7941L16.9325 21.6838L16.4515 22.0813L14.314 23.5545H10.6786L8.54835 22.0886L8.05575 21.6837L10.4283 22.8072C10.457 22.8208 10.4906 22.8185 10.5172 22.8012C10.5438 22.784 10.5595 22.7541 10.5588 22.7224L10.5379 21.8667L10.7203 21.712H14.2804L14.4693 21.8676L14.4494 22.6868Z"
        fill="#C0AC9D" />
    <path
        d="M14.2989 19.6972L13.8383 19.3828H11.1623L10.709 19.7045L10.4458 21.8248L10.6871 21.6201H14.3135L14.5621 21.8248L14.2989 19.7045V19.6972Z"
        fill="#161616" />
    <path fill-rule="evenodd" clip-rule="evenodd"
        d="M11.109 19.3089C11.1245 19.2979 11.143 19.292 11.1619 19.292H13.8379C13.8563 19.292 13.8742 19.2975 13.8894 19.3079L14.35 19.6223C14.375 19.6393 14.3899 19.6676 14.3899 19.6978V19.6994L14.6524 21.8141C14.657 21.8513 14.6385 21.8874 14.6057 21.9055C14.573 21.9235 14.5325 21.9197 14.5036 21.8959L14.2803 21.7121H10.7202L10.5045 21.8951C10.4758 21.9194 10.4351 21.9237 10.402 21.9058C10.3688 21.8879 10.3501 21.8515 10.3547 21.8141L10.6179 19.6938C10.6211 19.6684 10.6348 19.6454 10.6557 19.6306L11.109 19.3089ZM11.191 19.4748L10.7943 19.7563L10.565 21.6041L10.6275 21.551C10.6441 21.537 10.665 21.5293 10.6867 21.5293H14.3131C14.3343 21.5293 14.3549 21.5366 14.3712 21.5501L14.4428 21.609L14.2119 19.7493L13.8097 19.4748H11.191Z"
        fill="#161616" />
    <path
        d="M23.9861 8.47451L24.7904 4.56292L23.5767 0.907227L14.2912 7.77993L17.8665 10.7849L22.9113 12.2545L24.0227 10.9604L23.5401 10.6094L24.3078 9.90755L23.7229 9.45424L24.4906 8.86933L23.9788 8.47451H23.9861ZM0.209473 4.55561L1.02835 8.47451L0.501928 8.86202L1.28425 9.44693L0.699336 9.90755L1.45972 10.6094L0.977168 10.9604L2.0885 12.2545L7.13336 10.7922L10.7086 7.77262L1.42316 0.907227L0.209473 4.55561Z"
        fill="#763E1A" />
    <path fill-rule="evenodd" clip-rule="evenodd"
        d="M23.6043 0.820179C23.6323 0.829019 23.6543 0.850712 23.6635 0.878514L24.8772 4.53421C24.8822 4.54943 24.8832 4.56571 24.88 4.58141L24.0862 8.44197L24.5465 8.79705C24.569 8.81441 24.5822 8.84126 24.5821 8.86969C24.582 8.89811 24.5687 8.92488 24.5461 8.94211L23.873 9.45494L24.3639 9.83539C24.3852 9.8519 24.3981 9.87698 24.3992 9.90391C24.4003 9.93085 24.3895 9.95689 24.3696 9.97508L23.6845 10.6014L24.0765 10.8866C24.0971 10.9016 24.1106 10.9245 24.1135 10.9499C24.1165 10.9752 24.1087 11.0007 24.0921 11.02L22.9808 12.3141C22.9574 12.3413 22.9203 12.3524 22.8859 12.3423L17.841 10.8727C17.8288 10.8692 17.8175 10.8631 17.8078 10.855L14.2325 7.84998C14.2111 7.83198 14.1991 7.80516 14.1999 7.77719C14.2008 7.74923 14.2144 7.7232 14.2369 7.70656L23.5224 0.833852C23.5459 0.816423 23.5764 0.811339 23.6043 0.820179ZM23.9035 8.42288L24.696 4.56857L23.5298 1.0558L14.4388 7.78457L17.9106 10.7026L22.8804 12.1504L23.8889 10.9761L23.4864 10.6834C23.4642 10.6673 23.4505 10.642 23.4489 10.6146C23.4474 10.5872 23.4583 10.5606 23.4785 10.5421L24.1661 9.9134L23.667 9.52656C23.6446 9.50917 23.6315 9.48234 23.6316 9.45395C23.6317 9.42556 23.645 9.39883 23.6676 9.38163L24.3405 8.86896L23.9231 8.54696C23.8921 8.52307 23.8798 8.48213 23.8924 8.44511C23.8951 8.43709 23.8989 8.42963 23.9035 8.42288ZM1.39567 0.820178C1.42359 0.811344 1.45404 0.816418 1.47758 0.833824L10.763 7.69922C10.7855 7.71583 10.7992 7.74182 10.8001 7.76975C10.801 7.79768 10.789 7.82449 10.7677 7.84253L7.19241 10.8621C7.18262 10.8704 7.1712 10.8765 7.15888 10.8801L2.11403 12.3424C2.07963 12.3523 2.04258 12.3413 2.01925 12.3141L0.907917 11.02C0.891291 11.0007 0.883517 10.9752 0.886476 10.9499C0.889436 10.9245 0.902859 10.9016 0.923498 10.8866L1.31597 10.6011L0.63743 9.97478C0.61777 9.95664 0.607049 9.93079 0.608097 9.90405C0.609145 9.87732 0.621856 9.85238 0.642876 9.83583L1.13422 9.44889L0.447286 8.9353C0.424113 8.91797 0.410512 8.89069 0.41062 8.86176C0.410728 8.83283 0.424531 8.80565 0.447833 8.7885L0.92696 8.43581L0.120096 4.57439C0.116792 4.55858 0.117738 4.54217 0.122837 4.52684L1.33653 0.878462C1.34577 0.850682 1.36776 0.829011 1.39567 0.820178ZM1.4702 1.05569L0.304061 4.56114L1.11789 8.4559C1.12521 8.49092 1.11142 8.52699 1.08261 8.5482L0.655402 8.86267L1.33906 9.37382C1.36181 9.39083 1.37536 9.41746 1.37572 9.44587C1.37607 9.47428 1.3632 9.50124 1.34087 9.51881L0.840135 9.91314L1.52179 10.5424C1.5419 10.5609 1.55264 10.5875 1.55104 10.6148C1.54945 10.6422 1.53569 10.6673 1.51356 10.6834L1.11114 10.9761L2.11961 12.1504L7.08932 10.7099L10.5614 7.77747L1.4702 1.05569Z"
        fill="#763E1A" />
    <path
        d="M22.9112 12.2547L17.8663 10.7925L19.3871 13.0809L17.1206 17.5043L20.1182 17.4678H24.6001L22.9112 12.2547ZM7.13322 10.7851L2.08836 12.2547L0.406738 17.4678H4.88862L7.88629 17.5043L5.61976 13.0809L7.14053 10.7851H7.13322ZM13.9694 13.3295L14.2984 7.77286L15.7607 3.82471H9.2389L10.7012 7.77286L11.0302 13.3295L11.1545 15.0696V19.3833H13.8378L13.8524 15.0696L13.9694 13.3295Z"
        fill="#F5841F" />
    <path fill-rule="evenodd" clip-rule="evenodd"
        d="M9.16397 3.77209C9.18105 3.74754 9.20907 3.73291 9.23898 3.73291H15.7607C15.7906 3.73291 15.8187 3.74754 15.8358 3.77209C15.8528 3.79664 15.8568 3.828 15.8464 3.85604L14.3889 7.79143L14.0607 13.3345L14.0606 13.3352L13.9438 15.0725L13.9292 19.3832C13.9291 19.4336 13.8882 19.4743 13.8378 19.4743H11.1546C11.1041 19.4743 11.0632 19.4334 11.0632 19.3829V15.0725L10.9391 13.3356L10.939 13.3345L10.6108 7.79144L9.15328 3.85604C9.14289 3.828 9.14688 3.79664 9.16397 3.77209ZM9.37029 3.91569L10.787 7.74071C10.7901 7.74917 10.792 7.75805 10.7925 7.76705L11.1214 13.3226L11.1215 13.3237L11.2462 15.0692L11.246 19.2915H13.7468L13.7611 15.0631L13.8782 13.3237L13.8783 13.323L14.2072 7.76705C14.2078 7.75805 14.2096 7.74917 14.2128 7.74071L15.6294 3.91569H9.37029ZM7.10774 10.697C7.11604 10.6946 7.12465 10.6934 7.1333 10.6934H7.14061C7.17427 10.6934 7.2052 10.7119 7.22113 10.7415C7.23705 10.7712 7.23539 10.8072 7.2168 10.8352L5.72556 13.0864L7.96771 17.4622C7.98232 17.4907 7.98093 17.5248 7.96406 17.552C7.94719 17.5793 7.91729 17.5957 7.88526 17.5953L4.8887 17.5587H0.406823C0.377602 17.5587 0.350142 17.5448 0.332942 17.5212C0.315741 17.4975 0.310873 17.4671 0.319844 17.4393L2.00146 12.2263C2.01077 12.1974 2.03378 12.1751 2.06288 12.1666L7.10774 10.697ZM6.92839 10.9396L2.16054 12.3285L0.532334 17.376H4.88982L7.73591 17.4107L5.53851 13.1222C5.52345 13.0928 5.52541 13.0576 5.54365 13.03L6.92839 10.9396ZM17.7927 10.738C17.8154 10.7071 17.855 10.6936 17.8919 10.7043L22.9367 12.1666C22.9658 12.175 22.9889 12.1973 22.9982 12.2262L24.6871 17.4392C24.6962 17.467 24.6913 17.4975 24.6741 17.5211C24.6569 17.5448 24.6294 17.5587 24.6002 17.5587H20.1189L17.1218 17.5953C17.0897 17.5957 17.0598 17.5793 17.043 17.552C17.0261 17.5248 17.0247 17.4907 17.0393 17.4622L19.2814 13.0865L17.7903 10.8426C17.7691 10.8107 17.77 10.7689 17.7927 10.738ZM18.0806 10.9493L19.4633 13.0299C19.4816 13.0575 19.4836 13.0928 19.4685 13.1222L17.2711 17.4107L20.1183 17.376L24.4745 17.376L22.8393 12.3286L18.0806 10.9493Z"
        fill="#F5841F" />
</svg>